<svg class="img-fluid" id="outputsvg" xmlns="http://www.w3.org/2000/svg" width="512" height="512" viewBox="0 0 5120 5120"><g id="l1o0X0K3vnXHmg2Jvd8crZn" fill="rgb(35,31,32)" style="transform: none;"><g style="transform: none;"><path id="pGNth91xL" d="M740 5111 c-71 -15 -128 -60 -166 -131 -18 -34 -19 -96 -19 -1765 0 -1445 2 -1736 14 -1769 18 -52 86 -118 137 -134 23 -7 97 -12 168 -12 l126 0 0 -303 c0 -337 5 -373 63 -448 17 -23 57 -56 87 -73 l55 -31 381 -3 381 -3 17 -40 c11 -24 34 -51 59 -67 40 -27 41 -27 249 -30 l208 -3 0 -38 c0 -137 118 -253 257 -252 32 0 75 7 95 15 90 38 158 136 158 229 l0 47 230 0 c251 0 273 4 322 56 15 16 31 41 37 57 l11 27 364 0 c340 0 369 1 418 20 63 23 128 85 157 150 20 44 21 62 21 926 0 827 -1 882 -18 896 -9 8 -25 18 -34 21 -10 4 -18 13 -18 22 0 24 -48 18 -75 -10 l-25 -24 0 -858 c0 -797 -1 -860 -18 -892 -9 -19 -30 -44 -45 -55 -27 -20 -43 -21 -362 -24 l-333 -3 -7 23 c-23 72 -92 118 -178 118 l-55 0 -4 63 c-5 80 -31 132 -81 165 l-41 27 -478 3 c-462 2 -479 2 -517 -18 -65 -33 -94 -80 -100 -163 l-6 -72 -40 -3 c-104 -6 -163 -40 -192 -109 l-13 -33 -308 0 c-177 0 -322 4 -344 10 -20 6 -50 26 -67 46 l-31 35 0 284 0 285 598 0 597 0 50 24 c39 19 140 115 471 447 395 399 422 427 437 478 16 49 17 170 17 1387 l0 1334 473 0 c453 0 473 -1 505 -20 18 -11 41 -34 52 -52 20 -32 20 -53 20 -1111 l0 -1078 25 -24 c27 -28 75 -34 75 -10 0 9 10 19 23 24 13 5 28 16 35 24 10 11 12 260 10 1118 -3 1075 -4 1105 -23 1144 -26 54 -87 113 -144 139 l-46 21 -1790 1 c-984 1 -1806 -1 -1825 -5z m2375 -196 l25 -24 0 -1220 0 -1220 -423 -3 -423 -3 -42 -28 c-23 -15 -52 -46 -64 -70 -23 -41 -23 -47 -26 -460 l-3 -417 -695 2 -696 3 -19 24 c-19 23 -19 64 -19 1709 l0 1686 22 23 21 23 1159 0 1159 0 24 -25z m-395 -3020 l-345 -345 -3 331 c-2 236 1 336 9 345 9 11 75 14 348 14 l336 0 -345 -345z m460 -1110 c6 -8 9 -19 5 -25 -4 -7 -137 -10 -401 -10 -375 0 -394 1 -394 18 0 10 3 22 7 25 3 4 178 7 388 7 323 0 384 -2 395 -15z m241 -245 c21 -12 25 -40 7 -58 -9 -9 -164 -12 -638 -12 -648 0 -650 0 -650 40 0 40 2 40 643 40 407 0 625 -4 638 -10z m-591 -281 c0 -21 -21 -49 -48 -63 -31 -16 -55 -8 -84 28 -32 39 -24 46 57 46 46 0 75 -4 75 -11z"></path><path id="p6XvJv3cG" d="M1175 4584 c-81 -42 -108 -98 -103 -209 4 -95 27 -139 93 -177 l40 -23 700 -3 c512 -2 711 0 740 9 96 28 135 87 135 204 0 42 -6 90 -14 108 -16 39 -61 82 -99 96 -18 7 -140 11 -328 11 -286 0 -300 -1 -319 -20 -29 -29 -28 -127 0 -158 20 -22 26 -22 275 -22 158 0 256 -4 260 -10 4 -7 -208 -10 -630 -10 -422 0 -634 3 -630 10 4 6 102 10 261 10 302 0 294 -3 294 104 0 100 13 96 -345 96 -252 0 -305 -3 -330 -16z"></path><path id="p14QNI9B8L" d="M1196 4085 c-51 -18 -104 -70 -117 -116 -6 -20 -10 -70 -8 -112 4 -66 8 -80 35 -114 62 -77 12 -73 822 -73 786 0 748 -3 803 57 42 45 49 67 49 153 0 123 -38 182 -135 209 -64 18 -1398 14 -1449 -4z m1359 -205 c-9 -14 -1251 -14 -1260 0 -4 7 208 10 630 10 422 0 634 -3 630 -10z"></path><path id="p4EBCmioM" d="M1172 3569 c-66 -33 -96 -85 -100 -175 -6 -114 25 -180 102 -215 39 -18 81 -19 751 -19 667 0 712 2 750 19 51 23 92 71 101 116 3 19 5 68 2 108 -3 63 -8 80 -32 112 -16 20 -47 46 -70 56 -39 18 -79 19 -751 19 -706 0 -710 0 -753 -21z m1378 -199 c-9 -6 -248 -10 -625 -10 -377 0 -616 4 -625 10 -10 6 208 10 625 10 417 0 635 -4 625 -10z"></path><path id="p15UwjtP4p" d="M1175 3064 c-81 -42 -108 -98 -103 -209 2 -68 7 -88 30 -122 14 -22 43 -48 65 -59 36 -18 70 -19 764 -19 l725 0 42 28 c60 39 82 89 82 182 0 42 -6 90 -14 108 -16 39 -61 82 -99 96 -19 8 -263 11 -745 11 -631 0 -721 -2 -747 -16z m1380 -194 c4 -7 -208 -10 -630 -10 -422 0 -634 3 -630 10 4 6 225 10 630 10 405 0 626 -4 630 -10z"></path></g></g><g id="l5DH1tpVmLRYl3PHyHuHVzl" fill="rgb(49,77,202)" style="transform: none;"><g style="transform: none;"><path id="pfOf1MgyQ" d="M722 4947 c-28 -29 -29 -57 -2 -57 13 0 20 7 20 20 0 13 7 20 20 20 13 0 20 7 20 20 0 27 -31 26 -58 -3z"></path><path id="pgtld7Qwq" d="M1820 4500 c0 -32 -30 -70 -55 -70 -8 0 -15 -7 -15 -15 0 -10 11 -15 35 -15 24 0 35 5 35 15 0 8 6 15 14 15 15 0 26 30 26 73 0 20 -5 27 -20 27 -16 0 -20 -7 -20 -30z"></path><path id="p1afraH4e" d="M2010 4455 c0 -34 1 -35 36 -35 l37 0 -27 26 c-14 15 -26 31 -26 35 0 5 -4 9 -10 9 -5 0 -10 -16 -10 -35z"></path><path id="p50ZLEpab" d="M1256 4414 c-19 -18 -19 -20 -6 -45 17 -31 47 -24 54 12 3 17 6 35 6 40 0 15 -38 10 -54 -7z"></path><path id="pHMwwjjb0" d="M2544 4399 c3 -17 6 -35 6 -40 0 -13 34 -11 48 3 7 7 12 18 12 24 0 19 -29 44 -52 44 -18 0 -20 -4 -14 -31z"></path><path id="pj9S3AGmH" d="M1250 3901 c-14 -26 -3 -50 27 -57 32 -8 36 -3 28 40 -8 41 -37 50 -55 17z"></path><path id="p1GsU1R9qU" d="M2555 3883 c8 -45 8 -45 28 -37 39 15 27 74 -15 74 -18 0 -19 -4 -13 -37z"></path><path id="pg5IPGwE5" d="M1249 3388 c-10 -18 -8 -24 11 -40 21 -17 59 -18 665 -18 621 0 644 1 666 19 19 16 22 23 13 37 -16 26 -34 29 -34 5 l0 -21 -645 0 c-638 0 -645 0 -645 20 0 26 -16 25 -31 -2z"></path><path id="pgxuckYGM" d="M1256 2891 c-14 -15 -15 -24 -6 -40 17 -32 46 -27 54 10 3 17 6 35 6 40 0 16 -37 9 -54 -10z"></path><path id="pcHnpp3OI" d="M2540 2891 c0 -10 7 -21 15 -25 8 -3 15 -12 15 -21 0 -18 12 -19 28 -3 16 16 15 33 -4 52 -22 22 -54 21 -54 -3z"></path><path id="p10DWNI2dV" d="M2352 2258 c-14 -14 -18 -788 -3 -788 29 0 32 34 31 388 0 236 3 363 10 367 5 3 10 15 10 26 0 22 -29 26 -48 7z"></path><path id="pJnC5rliV" d="M710 1481 c0 -10 19 -26 43 -34 13 -5 17 -1 17 18 0 21 -5 25 -30 25 -16 0 -30 -4 -30 -9z"></path><path id="peRKgoIZC" d="M2122 568 c-7 -7 -12 -16 -12 -20 0 -4 296 -9 658 -10 l657 -3 3 -27 3 -28 -660 0 c-364 0 -661 -4 -661 -8 0 -31 26 -32 680 -32 497 0 659 3 668 12 7 7 12 33 12 60 0 37 -4 50 -19 58 -30 15 -1313 14 -1329 -2z"></path><path id="p6MjNhzyD" d="M2647 294 c-23 -23 13 -108 54 -129 78 -41 177 20 167 103 l-3 27 -106 3 c-58 1 -108 -1 -112 -4z"></path></g></g><g id="lwY9KJM4fanT03XYDDlQLV" fill="rgb(79,102,209)" style="transform: none;"><g style="transform: none;"><path id="psr8NeSmj" d="M1750 4588 c1 -7 16 -20 35 -29 l35 -16 0 28 c0 26 -3 29 -35 29 -22 0 -35 -5 -35 -12z"></path><path id="pdrCy1xFQ" d="M2590 4587 c0 -8 16 -18 35 -24 33 -11 35 -10 35 13 0 21 -5 24 -35 24 -22 0 -35 -5 -35 -13z"></path><path id="pLQk0HSDG" d="M1150 4550 l0 -30 35 22 c44 29 44 38 0 38 -32 0 -35 -2 -35 -30z"></path><path id="pWOW6aDGD" d="M1823 4508 c2 -7 0 -23 -4 -35 -7 -20 -5 -23 16 -23 22 0 25 4 25 35 0 29 -4 35 -21 35 -12 0 -19 -5 -16 -12z"></path><path id="pv2Bbf985" d="M1080 4465 c0 -43 14 -45 35 -5 20 38 19 40 -10 40 -22 0 -25 -4 -25 -35z"></path><path id="p15l48R9xO" d="M2000 4465 c0 -24 5 -35 15 -35 8 0 15 -6 15 -14 0 -23 34 -26 293 -26 239 0 247 -1 247 -20 0 -13 5 -17 14 -14 26 10 29 38 6 56 -20 16 -48 18 -271 18 -236 0 -250 1 -269 20 -11 11 -20 27 -20 35 0 8 -7 15 -15 15 -10 0 -15 -11 -15 -35z"></path><path id="pgKCJpLG2" d="M2743 4445 c6 -19 16 -35 24 -35 8 0 13 13 13 35 0 30 -3 35 -24 35 -23 0 -24 -2 -13 -35z"></path><path id="pgVFuQf1x" d="M1268 4419 c-44 -25 -9 -29 252 -29 263 0 270 0 270 20 0 19 -7 20 -252 20 -153 0 -260 -5 -270 -11z"></path><path id="pKqPBePY7" d="M1110 4272 c0 -33 18 -62 39 -62 6 0 11 -4 11 -10 0 -5 14 -10 30 -10 17 0 30 -4 30 -10 0 -5 16 -10 35 -10 46 0 47 26 3 35 -48 11 -83 31 -117 67 l-31 33 0 -33z"></path><path id="pkAo6ksEr" d="M2633 4218 c-45 -15 -43 -38 2 -38 31 0 35 3 35 25 0 14 -1 25 -2 24 -2 -1 -18 -6 -35 -11z"></path><path id="pt2wamrjI" d="M2560 4086 c0 -13 28 -26 58 -26 6 0 12 9 12 20 0 16 -7 20 -35 20 -23 0 -35 -5 -35 -14z"></path><path id="p1EFnReFRE" d="M1114 4036 c-3 -8 -4 -26 -2 -41 l3 -26 40 40 39 41 -37 0 c-23 0 -40 -5 -43 -14z"></path><path id="pZu46WuNR" d="M2570 3900 c0 -20 -10 -20 -660 -20 -417 0 -660 -4 -660 -10 0 -27 56 -30 683 -30 614 0 645 1 661 19 18 20 13 46 -10 55 -9 3 -14 -1 -14 -14z"></path><path id="piD2mWnHM" d="M1090 3785 c0 -32 2 -35 30 -35 l30 0 -22 35 c-29 44 -38 44 -38 0z"></path><path id="pdffFKIqR" d="M2695 3751 l-39 -41 37 0 c41 0 51 12 45 55 l-3 26 -40 -40z"></path><path id="pR62hzQT3" d="M1190 3694 c0 -21 5 -24 35 -24 22 0 35 5 35 13 0 8 -16 18 -35 24 -33 11 -35 10 -35 -13z"></path><path id="p15MhiyF1B" d="M1140 3540 c0 -13 -7 -20 -20 -20 -16 0 -20 -7 -20 -30 0 -20 -5 -30 -15 -30 -10 0 -15 -11 -15 -35 0 -43 25 -48 35 -7 10 42 44 90 76 109 38 23 37 33 -6 33 -28 0 -35 -4 -35 -20z"></path><path id="p14XTlx3e" d="M1257 3403 c-16 -15 -6 -33 18 -33 18 0 25 5 25 20 0 20 -28 28 -43 13z"></path><path id="pxF4P2sio" d="M2570 3375 c0 -38 13 -46 29 -17 6 11 6 24 0 35 -16 28 -29 20 -29 -18z"></path><path id="p16OLdrGNh" d="M1070 3325 c0 -30 3 -35 24 -35 23 0 24 2 13 35 -6 19 -16 35 -24 35 -8 0 -13 -13 -13 -35z"></path><path id="p1Fj8kbvkb" d="M2623 3202 c-49 -19 -57 -42 -15 -42 51 0 72 11 72 36 0 27 0 27 -57 6z"></path><path id="p2vFY5XUs" d="M1150 3030 l0 -30 35 22 c44 29 44 38 0 38 -32 0 -35 -2 -35 -30z"></path><path id="psrs3w00H" d="M1080 2945 c0 -43 14 -45 35 -5 20 38 19 40 -10 40 -22 0 -25 -4 -25 -35z"></path><path id="p8WYNuz4R" d="M2743 2925 c6 -19 16 -35 24 -35 8 0 13 13 13 35 0 30 -3 35 -24 35 -23 0 -24 -2 -13 -35z"></path><path id="p9cUYJabt" d="M1268 2899 c-22 -13 -23 -55 -2 -63 23 -9 24 -8 24 14 0 20 7 20 630 20 623 0 630 0 630 -20 0 -27 36 -27 50 0 8 15 6 24 -10 40 -20 20 -31 20 -662 20 -418 -1 -649 -4 -660 -11z"></path><path id="pU1cYmIOt" d="M2735 2790 c-20 -38 -19 -40 10 -40 22 0 25 4 25 35 0 43 -14 45 -35 5z"></path><path id="p1EbWeYi2t" d="M1180 2684 c0 -21 5 -24 35 -24 22 0 35 5 35 13 0 8 -16 18 -35 24 -33 11 -35 10 -35 -13z"></path><path id="pl5oO0EyN" d="M2240 2390 l0 -30 35 22 c44 29 44 38 0 38 -32 0 -35 -2 -35 -30z"></path><path id="pTBgMe7JT" d="M2180 2315 c0 -19 -4 -35 -10 -35 -5 0 -10 -16 -10 -35 0 -49 27 -47 36 3 4 20 13 49 20 64 19 36 18 38 -11 38 -22 0 -25 -4 -25 -35z"></path><path id="psp98u2gb" d="M2362 2258 c-14 -14 -18 -778 -4 -778 4 0 58 51 119 113 l112 112 3 283 3 282 -110 0 c-73 0 -115 -4 -123 -12z"></path><path id="pfcHRUpRl" d="M3110 2248 c0 -20 1 -21 20 -3 11 10 20 20 20 22 0 1 -9 3 -20 3 -14 0 -20 -7 -20 -22z"></path><path id="pEvc45qKU" d="M2114 556 c-3 -7 -4 -33 -2 -57 l3 -44 673 -3 673 -2 -3 57 -3 58 -668 3 c-563 2 -668 0 -673 -12z"></path><path id="p1CRqXKgtV" d="M2810 266 c0 -14 5 -37 11 -53 10 -27 11 -27 25 -9 8 11 14 35 14 53 0 29 -3 33 -25 33 -20 0 -25 -5 -25 -24z"></path></g></g><g id="lhpMXnBZFlJAZDRS7w2hNt" fill="rgb(92,113,212)" style="transform: none;"><g style="transform: none;"><path id="pbFVXn39C" d="M1190 4576 c0 -23 2 -24 35 -13 19 6 35 16 35 24 0 8 -13 13 -35 13 -30 0 -35 -3 -35 -24z"></path><path id="pRz9hrX8M" d="M2030 4565 c0 -28 -4 -35 -20 -35 -16 0 -20 -7 -20 -35 0 -28 4 -35 20 -35 16 0 20 7 20 35 0 37 28 75 55 75 8 0 15 7 15 15 0 10 -11 15 -35 15 -33 0 -35 -2 -35 -35z"></path><path id="p15htbc4La" d="M2695 4519 l40 -40 3 26 c6 43 -4 55 -45 55 l-37 0 39 -41z"></path><path id="p182hmIKhy" d="M1823 4505 c1 -26 7 -35 20 -35 13 0 17 8 17 35 0 28 -4 35 -20 35 -17 0 -20 -6 -17 -35z"></path><path id="pBBgYYGWA" d="M1090 4485 c0 -44 9 -44 38 0 l22 35 -30 0 c-28 0 -30 -3 -30 -35z"></path><path id="pJ8heyEud" d="M1763 4428 c-45 -15 -43 -38 2 -38 31 0 35 3 35 25 0 14 -1 25 -2 24 -2 -1 -18 -6 -35 -11z"></path><path id="pND7kq4dS" d="M2750 4385 c0 -28 4 -35 20 -35 16 0 20 7 20 35 0 28 -4 35 -20 35 -16 0 -20 -7 -20 -35z"></path><path id="poX4d48N1" d="M2560 4375 c0 -27 1 -28 24 -19 24 9 20 44 -4 44 -15 0 -20 -7 -20 -25z"></path><path id="pRqSWbI8Y" d="M1070 4335 c0 -30 3 -35 24 -35 23 0 24 2 13 35 -6 19 -16 35 -24 35 -8 0 -13 -13 -13 -35z"></path><path id="p1GuJaNYg7" d="M2735 4310 c-20 -38 -19 -40 10 -40 22 0 25 4 25 35 0 43 -14 45 -35 5z"></path><path id="pAna06yjL" d="M2673 4237 c-42 -28 -41 -37 2 -37 32 0 35 2 35 30 0 17 -1 30 -2 29 -2 0 -18 -10 -35 -22z"></path><path id="p1GDyCVd47" d="M1180 4204 c0 -21 5 -24 35 -24 22 0 35 5 35 13 0 8 -16 18 -35 24 -33 11 -35 10 -35 -13z"></path><path id="puaqRlFsy" d="M1220 4090 c0 -5 -13 -10 -30 -10 -16 0 -30 -4 -30 -10 0 -5 -7 -10 -15 -10 -10 0 -15 -11 -15 -35 0 -35 0 -35 19 -16 25 25 67 47 109 56 44 9 43 35 -3 35 -19 0 -35 -4 -35 -10z"></path><path id="pLggmeEEr" d="M2600 4077 c0 -8 16 -18 35 -24 33 -11 35 -10 35 13 0 21 -5 24 -35 24 -22 0 -35 -5 -35 -13z"></path><path id="pFGKMQ8TR" d="M2720 3995 c0 -14 32 -65 40 -65 6 0 10 16 10 35 0 31 -3 35 -25 35 -14 0 -25 -2 -25 -5z"></path><path id="p179hzVfn1" d="M1070 3935 c0 -22 5 -35 13 -35 8 0 18 16 24 35 11 33 10 35 -13 35 -21 0 -24 -5 -24 -35z"></path><path id="pbcW0WT8v" d="M2560 3895 c0 -18 5 -25 20 -25 24 0 28 35 4 44 -23 9 -24 8 -24 -19z"></path><path id="p17eXfBfDq" d="M2750 3885 c0 -28 4 -35 20 -35 16 0 20 7 20 35 0 28 -4 35 -20 35 -16 0 -20 -7 -20 -35z"></path><path id="pOppPI5No" d="M1250 3680 c0 -20 7 -20 680 -20 673 0 680 0 680 20 0 20 -7 20 -680 20 -673 0 -680 0 -680 -20z"></path><path id="pQY6lFOCI" d="M2580 3577 c0 -8 16 -18 35 -24 33 -11 35 -10 35 13 0 21 -5 24 -35 24 -22 0 -35 -5 -35 -13z"></path><path id="pMnrztHSs" d="M2721 3478 c26 -36 37 -121 21 -167 -10 -29 -9 -31 12 -31 20 0 24 6 30 48 7 54 -2 142 -15 142 -5 0 -9 9 -9 20 0 16 -7 20 -31 20 l-30 0 22 -32z"></path><path id="pBxwLakCG" d="M1262 3401 c-22 -13 -11 -56 16 -59 23 -4 26 6 16 46 -7 24 -12 26 -32 13z"></path><path id="pNUatTt5l" d="M1080 3295 c0 -31 3 -35 25 -35 29 0 30 2 10 40 -21 40 -35 38 -35 -5z"></path><path id="p1658orD8O" d="M2663 3217 c-42 -28 -41 -37 2 -37 32 0 35 2 35 30 0 17 -1 30 -2 29 -2 0 -18 -10 -35 -22z"></path><path id="p1CfIr9CQV" d="M1200 3184 c0 -21 5 -24 35 -24 22 0 35 5 35 13 0 8 -16 18 -35 24 -33 11 -35 10 -35 -13z"></path><path id="pwWvu7uJb" d="M2590 3066 c0 -8 14 -17 31 -21 17 -4 49 -23 70 -42 l39 -35 0 36 c0 34 -1 36 -35 36 -28 0 -35 4 -35 20 0 16 -7 20 -35 20 -24 0 -35 -5 -35 -14z"></path><path id="p2HPDM3fR" d="M1090 2965 c0 -44 9 -44 38 0 l22 35 -30 0 c-28 0 -30 -3 -30 -35z"></path><path id="pfCwsNOwz" d="M2750 2865 c0 -28 4 -35 20 -35 16 0 20 7 20 35 0 28 -4 35 -20 35 -16 0 -20 -7 -20 -35z"></path><path id="p12lzwRKrW" d="M2560 2855 c0 -27 1 -28 24 -19 24 9 20 44 -4 44 -15 0 -20 -7 -20 -25z"></path><path id="pKetiAxWE" d="M1070 2815 c0 -24 5 -35 15 -35 10 0 15 -10 15 -30 0 -27 3 -30 30 -30 l30 0 -24 38 c-14 20 -28 49 -31 65 -10 40 -35 35 -35 -8z"></path><path id="p4SS8H2NV" d="M2680 2720 c-14 -11 -44 -25 -67 -31 -53 -14 -58 -39 -8 -39 24 0 35 5 35 15 0 10 11 15 35 15 32 0 35 2 35 30 0 35 2 35 -30 10z"></path><path id="p120unbRxQ" d="M2160 2255 c0 -40 24 -49 34 -12 10 37 7 47 -14 47 -16 0 -20 -7 -20 -35z"></path><path id="p12F858IQd" d="M2567 2263 c-4 -3 -7 -137 -7 -296 0 -289 0 -290 20 -272 19 17 20 31 20 297 0 225 -3 278 -13 278 -8 0 -17 -3 -20 -7z"></path><path id="pSkomzW6A" d="M3067 2250 c-9 -11 -17 -29 -17 -40 0 -14 -7 -20 -21 -20 -30 0 -49 -24 -49 -62 l0 -33 80 80 c44 44 80 83 80 87 0 17 -56 7 -73 -12z"></path><path id="pYEcMFSH5" d="M704 1494 c3 -9 6 -17 6 -20 0 -7 59 -34 75 -34 8 0 15 9 15 20 0 15 -7 20 -25 20 -16 0 -25 6 -25 15 0 9 -10 15 -26 15 -20 0 -25 -4 -20 -16z"></path><path id="ptzI82fCp" d="M2120 460 c0 -14 1326 -14 1335 0 4 7 -220 10 -664 10 -441 0 -671 -3 -671 -10z"></path></g></g><g id="l7RbVdesTeckukHBMujkNpR" fill="rgb(108,127,217)" style="transform: none;"><g style="transform: none;"><path id="paASaBBXK" d="M725 4945 c-31 -30 -33 -65 -5 -65 15 0 20 7 20 25 0 20 5 25 25 25 18 0 25 5 25 20 0 28 -35 26 -65 -5z"></path><path id="p13Z7FOChL" d="M1230 4590 c0 -19 9 -19 285 -22 l285 -3 0 23 0 22 -285 0 c-277 0 -285 -1 -285 -20z"></path><path id="pSd0OH3IQ" d="M2060 4590 c0 -16 -7 -20 -30 -20 -28 0 -30 -3 -30 -35 0 -44 20 -46 40 -2 l15 32 283 3 c278 2 284 2 324 -20 92 -52 119 -181 56 -270 l-19 -28 30 0 c24 0 31 4 31 19 0 11 5 21 11 23 16 5 26 158 10 158 -6 0 -11 14 -11 30 0 17 -4 30 -10 30 -5 0 -10 7 -10 15 0 8 -7 15 -15 15 -8 0 -15 7 -15 15 0 8 -7 15 -15 15 -8 0 -15 5 -15 10 0 6 -16 10 -35 10 -19 0 -35 5 -35 10 0 6 -100 10 -280 10 -273 0 -280 0 -280 -20z"></path><path id="poQIHsGEm" d="M1117 4553 c-4 -3 -7 -21 -7 -40 0 -26 -4 -33 -20 -33 -16 0 -20 -7 -20 -35 0 -45 26 -48 35 -4 4 18 25 51 47 75 l41 44 -35 0 c-19 0 -38 -3 -41 -7z"></path><path id="p14i6GGiea" d="M1823 4515 c6 -19 16 -35 24 -35 8 0 13 13 13 35 0 30 -3 35 -24 35 -23 0 -24 -2 -13 -35z"></path><path id="p1850nvLY0" d="M1080 4305 c0 -19 5 -35 10 -35 6 0 10 -7 10 -15 0 -8 9 -15 20 -15 13 0 20 -7 20 -20 0 -16 7 -20 35 -20 24 0 35 -5 35 -15 0 -10 11 -15 35 -15 46 0 47 26 3 35 -52 11 -96 43 -124 91 -31 53 -44 56 -44 9z"></path><path id="p17y4aCo8q" d="M2588 4203 c-33 -8 -20 -33 17 -33 28 0 35 4 35 20 0 20 -14 23 -52 13z"></path><path id="pWrlitENz" d="M1198 4093 c-11 -3 -18 -14 -18 -28 l0 -23 50 16 c57 18 68 43 18 41 -18 -1 -41 -3 -50 -6z"></path><path id="pAtrCEeVA" d="M2570 4085 c0 -8 14 -17 35 -21 49 -9 108 -55 129 -99 55 -115 -16 -246 -146 -269 -49 -9 -52 -36 -5 -36 42 0 107 18 107 30 0 6 7 10 15 10 8 0 15 7 15 15 0 8 7 15 15 15 8 0 15 7 15 15 0 8 5 15 10 15 6 0 10 14 10 30 0 17 5 30 11 30 16 0 6 153 -10 158 -6 2 -11 12 -11 23 0 14 -7 19 -25 19 -20 0 -25 5 -25 25 0 22 -4 25 -35 25 -24 0 -35 5 -35 15 0 10 -11 15 -35 15 -24 0 -35 -5 -35 -15z"></path><path id="pp3Aq76oL" d="M1100 4015 c0 -8 -4 -15 -10 -15 -5 0 -10 -16 -10 -35 0 -19 4 -35 9 -35 4 0 22 23 39 50 l31 50 -29 0 c-20 0 -30 -5 -30 -15z"></path><path id="pzRYaOBiI" d="M1070 3825 c0 -28 4 -35 19 -35 16 0 20 -8 23 -37 3 -36 5 -38 42 -41 l40 -3 -41 44 c-22 24 -44 58 -48 76 -9 44 -35 41 -35 -4z"></path><path id="pKmhrmt4O" d="M1230 3680 c0 -17 7 -20 40 -20 45 0 57 23 18 34 -42 11 -58 7 -58 -14z"></path><path id="pg6XojBo1" d="M1188 3583 c-11 -3 -18 -14 -18 -30 0 -16 4 -23 13 -19 6 2 29 10 50 17 69 23 29 51 -45 32z"></path><path id="p1AeHrF5eK" d="M2610 3571 c0 -5 20 -21 45 -34 l45 -26 0 29 c0 16 -7 30 -16 34 -24 9 -74 7 -74 -3z"></path><path id="p10Hh4XScQ" d="M1086 3494 c-9 -24 -7 -74 3 -74 5 0 21 20 34 45 l26 45 -29 0 c-16 0 -30 -7 -34 -16z"></path><path id="p1B6LFWd3L" d="M2751 3375 c0 -48 3 -55 20 -55 16 0 19 7 19 55 0 48 -3 55 -19 55 -17 0 -20 -7 -20 -55z"></path><path id="phqDmLIHd" d="M1070 3315 c0 -19 5 -35 10 -35 6 0 10 -9 10 -20 0 -16 7 -20 30 -20 26 0 30 -3 30 -29 0 -31 14 -41 61 -41 40 0 36 16 -10 40 -44 22 -86 71 -96 113 -10 40 -35 35 -35 -8z"></path><path id="pw1Uua6PH" d="M2700 3245 l-34 -35 37 0 c36 0 37 1 37 35 0 19 -1 35 -3 35 -2 0 -18 -16 -37 -35z"></path><path id="p1CAsde8Ha" d="M2623 3198 c-45 -15 -43 -38 2 -38 31 0 35 3 35 25 0 14 -1 25 -2 24 -2 -1 -18 -6 -35 -11z"></path><path id="p6Cp1dWbz" d="M1213 3083 c-16 -3 -23 -11 -23 -28 0 -22 3 -24 26 -15 15 6 291 10 716 10 678 0 691 0 727 -21 93 -52 122 -183 60 -271 l-20 -28 30 0 c24 0 31 4 31 19 0 11 5 21 11 23 16 5 26 158 10 158 -6 0 -11 14 -11 30 0 17 -4 30 -10 30 -5 0 -10 6 -10 13 0 14 -35 47 -50 47 -6 0 -10 5 -10 10 0 6 -16 10 -35 10 -19 0 -35 5 -35 10 0 10 -1357 13 -1407 3z"></path><path id="p1FvHbhWmS" d="M1070 2925 c0 -22 5 -35 13 -35 8 0 18 16 24 35 11 33 10 35 -13 35 -21 0 -24 -5 -24 -35z"></path><path id="pbKwikcF0" d="M1080 2785 c0 -31 3 -35 25 -35 29 0 30 2 10 40 -21 40 -35 38 -35 -5z"></path><path id="pkfCreLEX" d="M1140 2710 c0 -28 3 -30 35 -30 24 0 35 -5 35 -15 0 -10 11 -15 35 -15 46 0 47 26 3 35 -18 4 -50 18 -70 31 l-38 24 0 -30z"></path><path id="p1GiP3DY3V" d="M2288 2443 c-11 -3 -18 -14 -18 -30 0 -16 4 -23 13 -19 6 2 29 10 50 17 69 23 29 51 -45 32z"></path><path id="pUacQRvsy" d="M2190 2351 c0 -11 -5 -21 -11 -23 -6 -2 -13 -25 -16 -51 -7 -63 18 -66 37 -4 7 23 21 54 32 70 l19 27 -30 0 c-24 0 -31 -4 -31 -19z"></path><path id="pfp3b9Tf" d="M2570 1978 l0 -293 280 280 c153 154 281 286 284 293 4 9 -55 12 -279 12 l-285 0 0 -292z"></path><path id="pmbaMWmev" d="M700 1513 c1 -26 22 -51 54 -63 18 -6 269 -10 732 -10 697 0 704 0 704 20 0 20 -7 20 -711 20 -739 0 -739 0 -739 39 0 6 -9 11 -20 11 -13 0 -20 -7 -20 -17z"></path><path id="pMZHdHSUb" d="M2453 453 c186 -2 488 -2 670 0 183 1 31 2 -338 2 -369 0 -518 -1 -332 -2z"></path></g></g><g id="l65Iw6fqKAJfq4G6K7qvmDz" fill="rgb(34,167,255)" style="transform: none;"><g style="transform: none;"><path id="pGszA7SlL" d="M741 4957 c-13 -6 -28 -22 -32 -34 -7 -19 -5 -23 12 -23 27 0 51 25 47 50 -3 17 -6 18 -27 7z"></path><path id="pZJARFydu" d="M1827 4507 c3 -16 -4 -34 -20 -53 l-25 -29 -263 -5 c-244 -5 -264 -6 -267 -23 -9 -48 -24 -47 673 -47 697 0 682 -1 673 47 -3 17 -23 18 -265 23 -253 5 -263 6 -284 27 -14 13 -22 33 -21 52 l1 31 -103 0 c-103 0 -103 0 -99 -23z"></path><path id="p40nJllMq" d="M1260 3905 c-6 -8 -10 -22 -8 -32 3 -17 36 -18 673 -18 637 0 670 1 673 18 9 48 24 47 -673 47 -558 0 -654 -2 -665 -15z"></path><path id="ptbWQdv4W" d="M1262 3398 c-19 -19 -14 -47 11 -53 12 -3 315 -4 672 -3 l650 3 0 30 0 30 -660 3 c-506 2 -664 -1 -673 -10z"></path><path id="prQe1Wbr3" d="M1253 2884 c-3 -9 -2 -24 4 -33 9 -14 73 -16 668 -16 595 0 659 2 668 16 6 9 7 24 4 33 -6 15 -65 16 -672 16 -607 0 -666 -1 -672 -16z"></path></g></g><g id="l1L0HtX5O9Zs3YM4F3A4W3h" fill="rgb(255,152,56)" style="transform: none;"><g style="transform: none;"><path id="pIbvIVTgm" d="M3318 3638 c2 -1222 1 -1338 -14 -1388 -16 -52 -37 -75 -438 -479 -330 -332 -432 -428 -471 -447 l-50 -24 -597 0 -598 0 0 -315 0 -314 31 -35 c17 -20 47 -40 67 -46 22 -6 176 -10 374 -10 l338 0 13 33 c29 69 88 103 192 109 l40 3 6 72 c6 83 35 130 99 163 37 19 60 20 476 20 423 0 439 -1 481 -21 49 -24 75 -56 93 -116 7 -24 19 -43 27 -43 18 0 17 74 -2 94 -8 8 -15 22 -15 30 0 9 -8 16 -20 16 -13 0 -20 7 -20 21 0 14 -12 25 -37 37 -34 15 -87 17 -498 17 -253 0 -472 -3 -487 -8 -15 -4 -33 -13 -40 -20 -8 -6 -22 -17 -33 -23 -30 -17 -56 -78 -62 -144 l-6 -60 -36 0 c-40 0 -101 -15 -110 -27 -3 -5 -15 -13 -25 -19 -11 -6 -24 -19 -30 -30 -6 -10 -14 -21 -17 -24 -3 -3 -8 -13 -12 -22 -6 -17 -27 -18 -252 -18 l-246 0 -19 42 c-18 39 -20 68 -20 321 l0 277 468 0 c391 0 477 3 520 15 28 9 58 22 66 30 8 8 19 15 23 15 5 0 24 16 43 35 29 30 41 35 79 35 80 1 116 26 272 191 410 433 614 657 630 694 18 38 19 105 19 1368 l0 1327 -102 0 -103 0 3 -1332z"></path><path id="poJ1l3osP" d="M4280 4950 c0 -15 7 -20 25 -20 14 0 25 -4 25 -10 0 -5 8 -10 18 -10 41 0 42 -28 42 -1138 0 -748 3 -1068 11 -1091 12 -35 35 -51 73 -51 16 0 26 6 26 15 0 8 -5 15 -10 15 -6 0 -22 11 -35 25 l-25 24 0 1078 c0 1058 0 1079 -20 1111 -37 60 -130 97 -130 52z"></path><path id="pPz4g6sJM" d="M4427 2478 c-9 -7 -21 -26 -27 -41 -7 -19 -10 -313 -10 -883 l0 -854 -34 -38 -34 -37 -341 -3 c-301 -2 -341 -1 -341 13 0 8 -4 15 -10 15 -5 0 -10 7 -10 15 0 9 -9 15 -25 15 -20 0 -25 5 -25 24 0 32 -60 56 -140 56 -53 0 -60 -2 -60 -20 0 -18 7 -20 55 -20 88 0 157 -45 180 -118 l7 -23 363 3 c350 3 365 4 392 24 15 11 36 36 45 55 17 32 18 95 18 892 l0 858 25 24 c13 14 29 25 35 25 5 0 10 7 10 15 0 19 -49 20 -73 3z"></path><path id="pw82yc5oa" d="M2367 823 c-4 -3 -7 -15 -7 -25 0 -14 6 -19 23 -16 29 4 38 48 9 48 -10 0 -22 -3 -25 -7z"></path><path id="p62K6aQ71" d="M3180 795 l0 -35 -410 0 c-404 0 -410 0 -410 -20 0 -20 5 -20 428 -18 l427 3 3 38 c3 37 -10 67 -29 67 -5 0 -9 -16 -9 -35z"></path></g></g><g id="l4F2ksW4utftjB7VqSKkefU" fill="rgb(255,170,92)" style="transform: none;"><g style="transform: none;"><path id="pqe1keGdf" d="M3479 4951 c8 -14 11 -423 11 -1313 0 -1229 -1 -1295 -19 -1333 -16 -37 -220 -261 -630 -694 -155 -164 -192 -190 -270 -191 -37 0 -50 -6 -88 -41 -25 -22 -66 -51 -91 -62 -46 -21 -59 -22 -534 -25 l-488 -3 0 -307 c0 -282 2 -311 20 -349 l19 -43 275 0 274 0 19 38 c30 56 88 93 160 99 l60 6 6 58 c7 81 34 128 92 164 l48 30 409 3 c278 2 426 0 464 -8 97 -20 154 -93 154 -195 l0 -55 48 0 c26 0 65 -9 88 -19 41 -19 104 -84 104 -109 0 -10 71 -12 371 -10 l371 3 34 37 34 38 0 855 c0 931 -1 917 54 931 26 6 26 7 26 104 0 97 0 98 -26 104 -56 14 -54 -19 -54 1141 0 1163 3 1100 -57 1141 -26 18 -55 19 -461 22 -429 3 -433 3 -423 -17z"></path><path id="pKYQR0nTw" d="M2372 818 c-7 -7 -12 -29 -12 -50 l0 -38 426 0 425 0 -3 48 -3 47 -410 3 c-311 2 -414 -1 -423 -10z"></path></g></g><g id="l4xBcurr0XnzMlPPWOzaHXG" fill="rgb(180,219,255)" style="transform: none;"><g style="transform: none;"><path id="pHNmEnuTc" d="M744 4958 c-12 -5 -27 -21 -33 -34 -8 -18 -11 -496 -11 -1723 l0 -1698 21 -27 c20 -25 23 -26 136 -26 l115 0 -8 33 c-12 42 -11 3400 0 3450 l9 37 -104 -1 c-57 0 -114 -5 -125 -11z"></path><path id="pK9DVOgFx" d="M3080 4951 c0 -11 9 -22 19 -26 11 -3 23 -15 26 -26 4 -10 15 -19 26 -19 27 0 24 35 -6 65 -30 30 -65 33 -65 6z"></path><path id="pP9Copasc" d="M1193 4599 c-18 -5 -33 -14 -33 -19 0 -6 -7 -10 -15 -10 -8 0 -15 -7 -15 -15 0 -8 -7 -15 -15 -15 -8 0 -15 -7 -15 -15 0 -8 -4 -15 -10 -15 -5 0 -10 -16 -10 -35 0 -19 -5 -35 -11 -35 -15 0 -6 -143 10 -148 6 -2 11 -12 11 -23 0 -15 7 -19 31 -19 l30 0 -22 32 c-35 49 -39 143 -8 198 25 44 81 83 137 95 18 4 32 13 32 21 0 16 -46 18 -97 3z"></path><path id="p149uiMqRE" d="M2050 4586 c0 -23 2 -24 35 -13 19 6 35 16 35 24 0 8 -13 13 -35 13 -30 0 -35 -3 -35 -24z"></path><path id="pUYcA51tB" d="M2560 4597 c0 -10 17 -19 51 -27 94 -23 159 -119 144 -211 -6 -35 -5 -39 15 -39 21 0 22 3 18 82 -2 53 -8 83 -16 86 -6 2 -12 12 -12 23 0 14 -7 19 -25 19 -20 0 -25 5 -25 25 0 18 -5 25 -19 25 -11 0 -21 5 -23 10 -2 6 -27 13 -56 17 -43 5 -52 3 -52 -10z"></path><path id="pDTSpmbMz" d="M1770 4586 c0 -6 60 -66 66 -66 2 0 4 16 4 35 0 33 -2 35 -35 35 -19 0 -35 -2 -35 -4z"></path><path id="pEJxGkIxv" d="M1990 4525 c0 -18 5 -25 19 -25 12 0 20 9 23 25 4 21 1 25 -18 25 -19 0 -24 -5 -24 -25z"></path><path id="pR8sFYsIX" d="M2675 4234 c-11 -8 -37 -20 -57 -26 -21 -6 -38 -17 -38 -25 0 -16 45 -17 89 -2 25 9 31 16 31 40 0 33 1 33 -25 13z"></path><path id="p1C2w4Gyrx" d="M1200 4194 c0 -21 5 -24 35 -24 22 0 35 5 35 13 0 8 -16 18 -35 24 -33 11 -35 10 -35 -13z"></path><path id="p1CDhMKCB2" d="M1200 4085 c0 -10 -10 -15 -30 -15 -25 0 -30 -4 -30 -25 0 -20 -5 -25 -25 -25 -18 0 -25 -5 -25 -19 0 -11 -5 -21 -11 -23 -16 -5 -25 -148 -10 -148 6 0 11 -16 11 -35 0 -19 5 -35 10 -35 6 0 10 -7 10 -15 0 -8 7 -15 15 -15 8 0 15 -7 15 -15 0 -8 7 -15 15 -15 8 0 15 -4 15 -9 0 -13 57 -31 96 -31 45 0 46 26 2 35 -56 12 -109 48 -134 91 -29 49 -32 129 -7 181 19 40 80 89 124 98 42 9 38 35 -6 35 -24 0 -35 -5 -35 -15z"></path><path id="psiQjI8a1" d="M2580 4087 c0 -8 17 -19 38 -26 20 -7 43 -15 50 -17 8 -4 12 3 12 19 0 17 -7 27 -22 31 -40 10 -78 7 -78 -7z"></path><path id="pF1DoLnZS" d="M2755 3911 c15 -89 -51 -190 -140 -212 -55 -14 -62 -39 -10 -39 24 0 35 5 35 15 0 10 11 15 35 15 31 0 35 3 35 25 0 20 5 25 25 25 18 0 25 5 25 19 0 11 6 21 12 23 8 3 14 33 16 86 4 79 3 82 -18 82 -20 0 -21 -4 -15 -39z"></path><path id="piZ21Bmke" d="M1223 3593 c-18 -2 -33 -8 -33 -14 0 -5 -9 -9 -20 -9 -16 0 -20 -7 -20 -31 l0 -30 33 23 32 23 690 3 c464 2 702 0 726 -8 74 -21 139 -129 124 -203 -11 -48 -43 -100 -76 -122 -38 -26 -37 -35 4 -35 31 0 67 27 67 50 0 6 4 10 10 10 36 0 38 223 3 249 -5 3 -13 15 -19 26 -7 13 -24 21 -48 23 -27 2 -36 8 -36 21 0 14 -11 20 -46 25 -50 6 -1336 6 -1391 -1z"></path><path id="p1ObW6hIl" d="M1066 3439 c-3 -17 -6 -51 -6 -75 0 -37 3 -44 20 -44 17 0 20 7 20 49 0 27 4 61 10 75 9 23 7 26 -14 26 -18 0 -25 -7 -30 -31z"></path><path id="p1HVI1p9PA" d="M1110 3245 c0 -34 1 -35 37 -35 l37 0 -34 35 c-19 19 -35 35 -37 35 -2 0 -3 -16 -3 -35z"></path><path id="pQNYcVuHi" d="M1190 3186 c0 -18 7 -25 31 -30 17 -3 339 -6 715 -6 677 0 684 0 684 20 0 20 -7 20 -689 20 -424 0 -700 4 -715 10 -23 9 -26 7 -26 -14z"></path><path id="prKYn0wYl" d="M1196 3080 c-16 -5 -32 -13 -35 -17 -3 -4 -15 -13 -26 -19 -11 -6 -24 -20 -30 -32 -5 -12 -13 -22 -17 -22 -5 0 -8 -16 -8 -35 0 -19 -5 -35 -11 -35 -15 0 -6 -143 10 -148 6 -2 11 -12 11 -23 0 -15 7 -19 31 -19 l30 0 -22 32 c-28 38 -38 133 -19 178 18 45 83 98 135 111 54 14 62 39 13 38 -18 0 -46 -5 -62 -9z"></path><path id="p123TccX1o" d="M2560 3077 c0 -10 17 -19 51 -27 94 -23 159 -119 144 -211 -6 -35 -5 -39 15 -39 21 0 22 3 18 82 -2 53 -8 83 -16 86 -6 2 -12 12 -12 23 0 14 -7 19 -25 19 -20 0 -25 5 -25 25 0 18 -5 25 -19 25 -11 0 -21 5 -23 10 -2 6 -27 13 -56 17 -43 5 -52 3 -52 -10z"></path><path id="pTg95NgJD" d="M2675 2714 c-11 -8 -37 -20 -57 -26 -21 -6 -38 -17 -38 -25 0 -16 45 -17 89 -2 25 9 31 16 31 40 0 33 1 33 -25 13z"></path><path id="pvw0YiPJ4" d="M1170 2687 c0 -26 20 -37 73 -37 40 0 34 25 -10 39 -21 7 -44 15 -50 17 -9 4 -13 -3 -13 -19z"></path><path id="pUI5hz20V" d="M2318 2453 c-16 -2 -28 -9 -28 -14 0 -5 -9 -9 -20 -9 -16 0 -20 -7 -20 -31 l0 -30 33 23 32 23 428 3 c417 3 427 3 427 22 0 20 -8 20 -412 19 -227 -1 -425 -4 -440 -6z"></path><path id="p116EgN6aX" d="M2160 2275 c0 -22 5 -35 13 -35 8 0 18 16 24 35 11 33 10 35 -13 35 -21 0 -24 -5 -24 -35z"></path></g></g><g id="l4y7ZDyZIsvuf6VEtenb1zh" fill="rgb(217,237,255)" style="transform: none;"><g style="transform: none;"><path id="pDQO3YxCS" d="M931 4939 c-14 -42 -16 -3425 -1 -3463 l10 -26 625 0 625 0 0 410 c0 448 -1 439 59 503 58 63 46 62 504 65 l417 3 0 1234 c0 883 -3 1241 -11 1258 -6 14 -22 30 -36 36 -17 8 -333 11 -1102 11 l-1079 0 -11 -31z m853 -370 c13 -7 30 -25 37 -40 11 -29 11 -29 105 -29 83 0 93 2 99 20 3 11 18 29 32 40 24 19 40 20 277 20 142 0 267 -5 288 -10 76 -21 138 -102 138 -180 0 -70 -59 -155 -123 -179 -19 -8 -254 -11 -713 -11 -660 0 -686 1 -723 20 -119 60 -143 208 -50 301 21 21 53 42 71 48 49 14 531 14 562 0z m893 -535 c45 -36 83 -105 83 -151 0 -72 -46 -142 -115 -174 -38 -17 -80 -19 -719 -19 -671 0 -680 0 -723 21 -142 69 -145 264 -4 339 35 19 62 19 738 17 l701 -2 39 -31z m-15 -496 c65 -39 93 -87 93 -164 0 -75 -34 -132 -98 -166 l-42 -23 -655 -3 c-360 -2 -674 0 -696 3 -81 12 -151 78 -169 162 -9 44 11 107 47 149 36 41 60 55 108 65 19 4 334 6 700 6 l665 -2 47 -27z m-40 -488 c76 -21 138 -102 138 -180 0 -70 -59 -155 -123 -179 -19 -8 -254 -11 -714 -11 -759 0 -722 -3 -783 66 -65 75 -61 183 11 255 21 21 53 42 71 48 47 13 1352 14 1400 1z"></path></g></g></svg>
